<svg xmlns="http://www.w3.org/2000/svg" width="417" height="211" viewBox="0 0 417 211"><defs><mask id="fzqgb" width="2" height="2" x="-1" y="-1"><path fill="#fff" d="M35 33h347v143H35z"/><path d="M45 33l30.342 2.598c.203.334.449.649.738.937L94.464 54.92a5 5 0 0 0 7.072 0l15.732-15.732L372 61c5.523 0 10 4.477 10 10v95c0 5.523-4.477 10-10 10H45c-5.523 0-10-4.477-10-10V43c0-5.523 4.477-10 10-10z"/></mask><filter id="fzqga" width="459" height="255" x="-21" y="-23" filterUnits="userSpaceOnUse"><feOffset in="SourceGraphic" result="FeOffset1023Out"/><feGaussianBlur in="FeOffset1023Out" result="FeGaussianBlur1024Out" stdDeviation="18.4 18.4"/></filter><clipPath id="fzqgc"><path fill="#fff" d="M49 38l22.373 1.958 22.072 21.136a6.413 6.413 0 0 0 9.07 0l17.617-16.87L369 66a7 7 0 0 1 7 7v91a7 7 0 0 1-7 7H49a7 7 0 0 1-7-7V45a7 7 0 0 1 7-7z"/></clipPath></defs><g><g><g filter="url(#fzqga)"><path fill="none" d="M45 33l30.342 2.598c.203.334.449.649.738.937L94.464 54.92a5 5 0 0 0 7.072 0l15.732-15.732L372 61c5.523 0 10 4.477 10 10v95c0 5.523-4.477 10-10 10H45c-5.523 0-10-4.477-10-10V43c0-5.523 4.477-10 10-10z" mask="url(&quot;#fzqgb&quot;)"/><path fill="#222425" fill-opacity=".12" d="M45 33l30.342 2.598c.203.334.449.649.738.937L94.464 54.92a5 5 0 0 0 7.072 0l15.732-15.732L372 61c5.523 0 10 4.477 10 10v95c0 5.523-4.477 10-10 10H45c-5.523 0-10-4.477-10-10V43c0-5.523 4.477-10 10-10z"/></g><path fill="#fff" d="M45 33l30.342 2.598c.203.334.449.649.738.937L94.464 54.92a5 5 0 0 0 7.072 0l15.732-15.732L372 61c5.523 0 10 4.477 10 10v95c0 5.523-4.477 10-10 10H45c-5.523 0-10-4.477-10-10V43c0-5.523 4.477-10 10-10z"/></g><g opacity=".1"><path fill="none" stroke="#000" stroke-miterlimit="50" stroke-width="2" d="M49 38l22.373 1.958 22.072 21.136a6.413 6.413 0 0 0 9.07 0l17.617-16.87L369 66a7 7 0 0 1 7 7v91a7 7 0 0 1-7 7H49a7 7 0 0 1-7-7V45a7 7 0 0 1 7-7z" clip-path="url(&quot;#fzqgc&quot;)"/></g></g></svg>